Coordinates
version=1
nRows=16
nColumns=40
inDegrees=yes

Units are S.I. units (second, meters, Newtons, ...)
If the header above contains a line with 'inDegrees', this indicates whether rotational values are in degrees (yes) or radians (no).

endheader
time	pelvis_tilt	pelvis_list	pelvis_rotation	pelvis_tx	pelvis_ty	pelvis_tz	hip_flexion_r	hip_adduction_r	hip_rotation_r	knee_angle_r	knee_angle_r_beta	ankle_angle_r	subtalar_angle_r	mtp_angle_r	hip_flexion_l	hip_adduction_l	hip_rotation_l	knee_angle_l	knee_angle_l_beta	ankle_angle_l	subtalar_angle_l	mtp_angle_l	lumbar_extension	lumbar_bending	lumbar_rotation	arm_flex_r	arm_add_r	arm_rot_r	elbow_flex_r	pro_sup_r	wrist_flex_r	wrist_dev_r	arm_flex_l	arm_add_l	arm_rot_l	elbow_flex_l	pro_sup_l	wrist_flex_l	wrist_dev_l
      2.25000000	     -3.68710578	    -10.02351242	      0.35287691	     -0.32583771	      0.83277420	     -0.97921801	     62.33868843	      0.09967841	     -8.29071168	     20.96425312	      0.36589524	    -15.51844101	      0.00000000	      0.00000000	     46.99721202	     -9.51564552	      0.55306872	     72.69255799	      1.26872448	     18.88307244	      0.00000000	      0.00000000	    -14.53915729	      2.76807578	      6.29161309	     89.91049946	     -5.52708326	     21.75002559	     32.96914430	     83.84001711	      0.00000000	      0.00000000	     89.93270743	    -18.81458561	     26.11159917	     38.48293269	     83.40988099	      0.00000000	      0.00000000
      2.25500000	     -3.74224983	     -9.97537708	      0.38048277	     -0.32600547	      0.83165111	     -0.97920788	     62.41888104	      0.01397607	     -8.25262821	     21.02484927	      0.36695284	    -15.48422567	      0.00000000	      0.00000000	     47.20389431	     -9.48746500	      0.52144572	     72.92299845	      1.27274642	     18.83539023	      0.00000000	      0.00000000	    -14.57611468	      2.71818788	      6.20325842	     89.91144593	     -5.39701032	     21.47445747	     33.00285311	     84.00908123	      0.00000000	      0.00000000	     89.93311500	    -18.93261179	     26.12248499	     38.62030798	     83.46504199	      0.00000000	      0.00000000
      2.26000000	     -3.78220054	    -10.02872139	      0.42910370	     -0.32615763	      0.83052754	     -0.97910649	     62.45309536	     -0.00204531	     -8.26156010	     20.96528505	      0.36591325	    -15.69193223	      0.00000000	      0.00000000	     47.52927085	     -9.53324527	      0.63575051	     73.29590733	      1.27925491	     18.66352943	      0.00000000	      0.00000000	    -14.61172297	      2.74451515	      6.18716405	     89.91201831	     -5.50424608	     21.66167482	     33.11622353	     83.78274060	      0.00000000	      0.00000000	     89.93374844	    -18.90189701	     26.02978324	     38.67518748	     83.41476818	      0.00000000	      0.00000000
      2.26500000	     -3.62082035	     -9.62955415	      0.13323996	     -0.32567737	      0.82988029	     -0.97908213	     62.34627457	     -0.00415574	     -7.78760937	     21.10090393	      0.36828025	    -15.43716010	      0.00000000	      0.00000000	     47.21087535	     -9.51996330	     -0.05247780	     73.40281842	      1.28112086	     18.88425417	      0.00000000	      0.00000000	    -14.83732346	      2.24627841	      6.35688663	     89.91205334	     -5.36904298	     21.25426535	     33.05171452	     83.95480498	      0.00000000	      0.00000000	     89.93345114	    -19.00499993	     26.07211301	     38.77166491	     83.45775502	      0.00000000	      0.00000000
      2.27000000	     -3.68861773	     -9.75161627	      0.30677556	     -0.32605842	      0.82869764	     -0.97915072	     62.39051265	     -0.13178187	     -8.03959894	     21.04955008	      0.36738395	    -15.52972460	      0.00000000	      0.00000000	     47.53582770	     -9.53116716	      0.15905206	     73.67810955	      1.28592560	     18.87635931	      0.00000000	      0.00000000	    -14.86293159	      2.39587225	      6.13512073	     89.91223563	     -5.31873731	     21.07745173	     33.17156550	     83.80937306	      0.00000000	      0.00000000	     89.93387999	    -19.09153553	     25.88079459	     38.88573424	     83.51042887	      0.00000000	      0.00000000
      2.27500000	     -3.76565084	     -9.80425541	      0.37493685	     -0.32623868	      0.82750373	     -0.97906373	     62.45633596	     -0.16816774	     -8.03189286	     21.00592466	      0.36662255	    -15.46974422	      0.00000000	      0.00000000	     47.79603786	     -9.54990199	      0.25934890	     73.93109928	      1.29034110	     18.99059442	      0.00000000	      0.00000000	    -14.84958355	      2.43647533	      6.08682651	     89.91302405	     -5.30461115	     20.99280533	     33.24128299	     83.74395203	      0.00000000	      0.00000000	     89.93433198	    -19.05525093	     25.78212866	     38.90882583	     83.49794050	      0.00000000	      0.00000000
      2.28000000	     -3.83363128	     -9.79274436	      0.35354785	     -0.32638546	      0.82632583	     -0.97886575	     62.48683276	     -0.15096606	     -7.86249468	     20.89054368	      0.36460877	    -15.53055690	      0.00000000	      0.00000000	     48.02484141	     -9.69885731	      0.04582833	     74.18131951	      1.29470827	     19.01874441	      0.00000000	      0.00000000	    -14.87083523	      2.38177259	      6.09664214	     89.91329885	     -5.32415806	     21.01788112	     33.30235234	     83.50581571	      0.00000000	      0.00000000	     89.93492088	    -19.08842734	     25.69836945	     39.08108659	     83.25323987	      0.00000000	      0.00000000
      2.28500000	     -3.88362574	     -9.76405495	      0.40428342	     -0.32648252	      0.82524202	     -0.97890794	     62.57322631	     -0.24915036	     -7.87298882	     20.96359414	      0.36588374	    -15.48153576	      0.00000000	      0.00000000	     48.23191829	     -9.66617600	      0.04080329	     74.45762904	      1.29953078	     18.94962596	      0.00000000	      0.00000000	    -14.89348307	      2.33866697	      6.09190873	     89.91405490	     -5.37176318	     20.77896999	     33.37933153	     83.83113143	      0.00000000	      0.00000000	     89.93495308	    -19.04760133	     25.68633949	     39.12116576	     83.31029841	      0.00000000	      0.00000000
      2.29000000	     -4.11284313	    -10.03272287	      0.55172515	     -0.32694448	      0.82368354	     -0.97856166	     62.78802111	     -0.25455423	     -8.11984565	     20.89584529	      0.36470130	    -15.55260409	      0.00000000	      0.00000000	     48.80710873	     -9.77632965	      0.48223217	     74.79193006	      1.30536543	     19.14677830	      0.00000000	      0.00000000	    -14.72645649	      2.60803749	      5.98575179	     89.91482417	     -5.24102123	     20.69695167	     33.39489793	     81.15757391	      0.00000000	      0.00000000	     89.93553063	    -19.04543408	     25.83519397	     39.22354038	     80.74213510	      0.00000000	      0.00000000
      2.29500000	     -4.04195034	     -9.86029845	      0.49669736	     -0.32675478	      0.82280593	     -0.97871227	     62.73121767	     -0.33715009	     -8.03731551	     20.91787512	      0.36508579	    -15.40050857	      0.00000000	      0.00000000	     48.76461761	     -9.75913712	      0.18251830	     74.97342497	      1.30853312	     19.21069636	      0.00000000	      0.00000000	    -14.85919515	      2.40470491	      5.94014461	     89.91474703	     -5.28014263	     20.48185177	     33.50583517	     83.53112135	      0.00000000	      0.00000000	     89.93536421	    -19.15536759	     25.52246170	     39.28955399	     83.43214660	      0.00000000	      0.00000000
      2.30000000	     -4.07640673	     -9.80330453	      0.53026812	     -0.32685670	      0.82176383	     -0.97873881	     62.78676979	     -0.43354015	     -8.07174765	     20.95796323	      0.36578546	    -15.31122689	      0.00000000	      0.00000000	     48.93486315	     -9.73044891	      0.12241430	     75.18463858	      1.31221949	     19.28163642	      0.00000000	      0.00000000	    -14.89682468	      2.31936444	      5.90003256	     89.91484705	     -5.29910283	     20.33278088	     33.51887113	     83.58474936	      0.00000000	      0.00000000	     89.93580165	    -19.10921845	     25.34042138	     39.33752622	     83.50313739	      0.00000000	      0.00000000
      2.30500000	     -4.28892181	    -10.01371768	      0.64870587	     -0.32721916	      0.82039320	     -0.97836865	     62.95421341	     -0.43275559	     -8.28891432	     20.82680161	      0.36349626	    -15.49366834	      0.00000000	      0.00000000	     49.46709369	     -9.89758678	      0.32232861	     75.50218970	      1.31776180	     19.21058033	      0.00000000	      0.00000000	    -14.75327028	      2.50461328	      5.78953034	     89.91568525	     -5.29366781	     20.29210646	     33.55869625	     83.51920051	      0.00000000	      0.00000000	     89.93624748	    -19.14150961	     25.29911194	     39.45554564	     83.45662348	      0.00000000	      0.00000000
      2.31000000	     -4.22542928	     -9.86258851	      0.61060436	     -0.32711248	      0.81946073	     -0.97847276	     62.90227212	     -0.51586056	     -8.16437948	     20.87493052	      0.36433627	    -15.37671376	      0.00000000	      0.00000000	     49.44323357	     -9.84410216	      0.12847065	     75.68259972	      1.32091055	     19.34255951	      0.00000000	      0.00000000	    -14.88241657	      2.33265138	      5.81355617	     89.91590595	     -5.27253633	     20.06202106	     33.61952796	     83.51798298	      0.00000000	      0.00000000	     89.93625872	    -19.17094369	     25.24527664	     39.51345610	     83.46568421	      0.00000000	      0.00000000
      2.31500000	     -4.44838506	    -10.06692063	      0.73936555	     -0.32753899	      0.81804571	     -0.97822855	     63.11574899	     -0.53970319	     -8.40770720	     20.80882209	      0.36318246	    -15.40070843	      0.00000000	      0.00000000	     49.98919797	     -9.95058443	      0.36948414	     76.00304551	      1.32650339	     19.30867499	      0.00000000	      0.00000000	    -14.72787421	      2.51013536	      5.78477708	     89.91685813	     -5.41176778	     20.27545539	     33.64778087	     82.90023312	      0.00000000	      0.00000000	     89.93670162	    -19.04445503	     25.22653354	     39.56663604	     82.75391219	      0.00000000	      0.00000000
      2.32000000	     -4.46053494	    -10.05200987	      0.75774362	     -0.32759019	      0.81704177	     -0.97814371	     63.12054554	     -0.58591151	     -8.45945010	     20.79615119	      0.36296131	    -15.44207516	      0.00000000	      0.00000000	     50.13932514	     -9.94482757	      0.36869468	     76.23529388	      1.33055688	     19.41478270	      0.00000000	      0.00000000	    -14.78765095	      2.48327288	      5.72680001	     89.91694490	     -5.34063160	     19.96431838	     33.70451022	     83.56891709	      0.00000000	      0.00000000	     89.93693757	    -19.09191130	     25.01391881	     39.63341324	     83.27319069	      0.00000000	      0.00000000
      2.32500000	     -4.51081431	    -10.05799743	      0.78284008	     -0.32764488	      0.81597422	     -0.97807742	     63.16119425	     -0.63456340	     -8.51246022	     20.79657234	      0.36296866	    -15.40212163	      0.00000000	      0.00000000	     50.32590526	     -9.94468665	      0.38685482	     76.43789420	      1.33409293	     19.49652155	      0.00000000	      0.00000000	    -14.80184229	      2.46644477	      5.69254964	     89.91695369	     -5.34169384	     19.85117782	     33.75076739	     83.37952691	      0.00000000	      0.00000000	     89.93713045	    -19.12573829	     24.99238283	     39.74830655	     83.24050473	      0.00000000	      0.00000000
